<svg xmlns="http://www.w3.org/2000/svg" width="64" height="64" viewBox="0 0 64 64">
  <rect width="64" height="64" fill="#24292e" rx="8"/>
  <path d="M32 12C20.95 12 12 20.95 12 32c0 8.84 5.74 16.35 13.7 19.01 1.0.19 1.37-.43 1.37-.96 0-.47-.02-1.73-.02-3.4-5.58 1.21-6.76-2.69-6.76-2.69-.92-2.35-2.26-2.98-2.26-2.98-1.85-1.26.14-1.24.14-1.24 2.05.14 3.13 2.1 3.13 2.1 1.82 3.12 4.77 2.22 5.93 1.7.18-1.32.71-2.22 1.29-2.73-4.51-.51-9.25-2.26-9.25-10.05 0-2.22.79-4.03 2.09-5.45-.21-.51-.91-2.57.2-5.35 0 0 1.7-.54 5.58 2.08 1.62-.45 3.35-.68 5.08-.68 1.73 0 3.46.23 5.08.68 3.87-2.62 5.58-2.08 5.58-2.08.91 2.78.31 4.84.2 5.35 1.3 1.42 2.09 3.23 2.09 5.45 0 7.8-4.74 9.54-9.25 10.05.73.63 1.38 1.87 1.38 3.77 0 2.73-.02 4.92-.02 5.59 0 .53.37 1.16 1.38.96C46.26 48.35 52 40.84 52 32c0-11.05-8.95-20-20-20z" fill="#fff"/>
</svg>
